<?xml version="1.0" encoding="utf-8"?>
<!-- Generator: Adobe Illustrator 24.1.2, SVG Export Plug-In . SVG Version: 6.00 Build 0)  -->
<svg version="1.1" id="Layer_1" xmlns="http://www.w3.org/2000/svg" xmlns:xlink="http://www.w3.org/1999/xlink" x="0px" y="0px"
	 viewBox="0 0 800 800" style="enable-background:new 0 0 800 800;" xml:space="preserve">
<style type="text/css">
	.st0{fill:#FFFFFF;}
	.st1{fill:#BCBEC0;}
</style>
<g>
	<g>
		<path class="st0" d="M770.39,170.75c0.13-28.47-1.79-48.79-2.94-58.26c-0.43-3.93-0.73-6.06-0.73-6.06s-228.85-4.68-368.44-96.99
			c-143.13,97.44-368.44,96.99-368.44,96.99s-0.3,2.13-0.73,6.06c-1.15,9.47-3.07,29.79-2.94,58.26
			c-0.66,135.35,36.2,451.09,372.05,620.02h0.03c0.01-0.01,0.02-0.01,0.03-0.02c0.01,0.01,0.02,0.01,0.03,0.02h0.03
			C734.19,621.84,771.05,306.09,770.39,170.75z"/>
	</g>
	<path class="st1" d="M278.89,413.21c-18.23-53.58-14.5-111.05,10.49-161.83c16.8-34.13,41.9-62.46,72.8-82.92
		c-92.66-26.67-191.19,23.2-223.71,115.31c-29.59,83.82,5.3,174.75,78.79,218.64l2.24,93.91c0.21,8.72,13.26,13.29,18.84,6.59
		l62.25-74.78c20.99,1.27,41.75-1.16,61.46-6.81C324.06,496.02,294.31,458.55,278.89,413.21z"/>
	<path d="M653.27,285.83c-32.66-95.98-136.94-147.32-232.92-114.66c-95.98,32.66-147.32,136.94-114.66,232.92
		c26.99,79.34,102.93,128.12,182.67,124.22l61.39,75.49c5.5,6.76,18.61,2.35,18.92-6.37l3.32-93.88
		C645.96,460.51,681.9,369.99,653.27,285.83z"/>
	<g>
		<path class="st0" d="M540.62,446.01H481.5h-59.12l27.3-86.28c-19.01-11.01-31.83-31.52-31.83-55.07
			c0-35.15,28.5-63.65,63.65-63.65c35.16,0,63.66,28.5,63.66,63.65c0,23.55-12.82,44.06-31.83,55.07L540.62,446.01z"/>
	</g>
</g>
</svg>
