<?xml version="1.0" encoding="utf-8"?>
<!-- Generator: Adobe Illustrator 24.1.2, SVG Export Plug-In . SVG Version: 6.00 Build 0)  -->
<svg version="1.1" id="Layer_1" xmlns="http://www.w3.org/2000/svg" xmlns:xlink="http://www.w3.org/1999/xlink" x="0px" y="0px"
	 viewBox="0 0 1000 800" style="enable-background:new 0 0 1000 800;" xml:space="preserve">
<style type="text/css">
	.st0{fill:#8F9194;}
	.st1{fill:#BCBEC0;}
	.st2{fill:#FFFFFF;}
</style>
<g>
	<path class="st0" d="M155.01,448.95h27.31v74.6h47.72v23.93h-75.02V448.95z"/>
	<path class="st0" d="M241.85,448.95h79.25v23.08h-52.22v15.06h47.29v21.54h-47.29v15.62h52.92v23.22h-79.95V448.95z"/>
	<path class="st0" d="M369.94,448.25h26.32l41.95,99.23h-29.28l-7.04-17.73h-38.15l-7.04,17.73h-28.57L369.94,448.25z
		 M393.87,508.49l-10.98-27.87l-11.12,27.87H393.87z"/>
	<path class="st0" d="M447.78,448.95h46.59c15.06,0,25.48,3.94,32.09,10.56c5.77,5.77,8.73,13.23,8.73,22.94v0.28
		c0,15.2-8.02,25.2-20.27,30.4l23.51,34.34h-31.39l-19.85-29.84h-12.1v29.84h-27.31V448.95z M493.24,496.25
		c9.15,0,14.64-4.5,14.64-11.68v-0.28c0-7.88-5.77-11.82-14.78-11.82h-18.02v23.79H493.24z"/>
	<path class="st0" d="M548.98,448.95h25.48l40.54,52.08v-52.08h27.03v98.53h-23.79L576,493.43v54.05h-27.03V448.95z"/>
	<path class="st0" d="M659.47,448.95h79.25v23.08h-52.22v15.06h47.3v21.54h-47.3v15.62h52.92v23.22h-79.95V448.95z"/>
	<path class="st0" d="M753.49,448.95h46.59c15.06,0,25.48,3.94,32.09,10.56c5.77,5.77,8.73,13.23,8.73,22.94v0.28
		c0,15.2-8.02,25.2-20.27,30.4l23.51,34.34h-31.39l-19.85-29.84h-12.1v29.84h-27.31V448.95z M798.96,496.25
		c9.15,0,14.64-4.5,14.64-11.68v-0.28c0-7.88-5.77-11.82-14.78-11.82H780.8v23.79H798.96z"/>
</g>
<g>
	<g>
		<g>
			<path d="M973.83,713.01v-8.02h8.32v8.02H973.83z"/>
			<path d="M961.17,699.75h-0.12c-11.87,0-21.82-9.16-21.82-22.12c0-12.96,9.82-22,21.7-22h0.12c11.87,0,21.82,9.16,21.82,22.12
				S973.04,699.75,961.17,699.75z M961.17,663.41h-0.12c-8.2,0-15.01,5.97-15.01,14.34s6.69,14.22,14.89,14.22h0.12
				c8.2,0,14.95-5.97,14.95-14.34C976,669.25,969.37,663.41,961.17,663.41z"/>
			<path d="M939.96,646.65v-18.8c0-5.3,1.57-9.46,4.22-12.17c2.29-2.23,5.42-3.49,9.1-3.49h0.12c6.93,0,11.09,4.16,12.78,10
				l15.97-11.39v8.8l-14.71,10.37v9.28h14.71v7.41H939.96z M960.87,628.39c0-5.3-2.77-8.68-7.05-8.68h-0.12
				c-4.52,0-6.99,3.25-6.99,8.74v10.79h14.16V628.39z"/>
			<path d="M961.17,604.94h-0.12c-11.81,0-21.82-9.04-21.82-21.76c0-7.35,2.05-11.87,5.73-16.21l5.61,4.7
				c-2.77,3.25-4.52,6.45-4.52,11.81c0,7.77,6.81,13.68,14.89,13.68h0.12c8.68,0,15.07-5.73,15.07-14.34c0-3.98-1.26-7.6-3.19-10.19
				h-7.89v10.79h-6.45v-17.96h17.72c3.56,4.16,6.57,10.12,6.57,17.6C982.86,596.26,973.46,604.94,961.17,604.94z"/>
		</g>
	</g>
	<path d="M16.29,565.09H77.5c35.79,0,58.97,18.51,58.97,49.82v0.41c0,33.76-25.83,51.45-61.01,51.45H55.74v40.67H16.29V565.09z
		 M74.65,635.86c13.83,0,22.57-7.52,22.57-18.71v-0.41c0-12.2-8.74-18.51-22.78-18.51H55.74v37.62H74.65z"/>
	<path d="M153.15,565.09h67.31c21.76,0,36.81,5.69,46.37,15.25c8.34,8.34,12.61,19.12,12.61,33.15v0.41
		c0,21.96-11.59,36.4-29.28,43.93l33.96,49.62h-45.35l-28.67-43.11H192.6v43.11h-39.45V565.09z M218.83,633.42
		c13.22,0,21.15-6.51,21.15-16.88v-0.41c0-11.39-8.34-17.08-21.35-17.08H192.6v34.37H218.83z"/>
	<path d="M300.38,565.09h39.45v142.35h-39.45V565.09z"/>
	<path d="M354.68,565.09h43.93l32.33,90.09l32.54-90.09h43.11l-57.76,143.37h-36.6L354.68,565.09z"/>
	<path d="M549.3,564.07h38.03l60.6,143.37h-42.3l-10.17-25.62h-55.11l-10.17,25.62H488.9L549.3,564.07z M583.87,651.11l-15.86-40.27
		l-16.07,40.27H583.87z"/>
	<path d="M647.93,636.67v-0.41c0-41.49,31.72-74.02,74.84-74.02c29.08,0,47.79,12.2,60.4,29.49l-29.69,22.98
		c-8.13-9.96-17.49-16.67-31.11-16.67c-19.93,0-33.96,17.08-33.96,37.83v0.41c0,21.35,14.03,38.03,33.96,38.03
		c14.84,0,23.59-6.92,32.13-17.29l29.69,21.15c-13.42,18.51-31.52,32.13-62.84,32.13C680.67,710.29,647.93,679.18,647.93,636.67z"/>
	<path d="M838.48,654.16l-54.3-89.07h44.94l29.28,51.86l29.49-51.86h44.13l-54.09,88.46v53.89h-39.45V654.16z"/>
</g>
<g>
	<path d="M663.45,120.47c0.06-12.55-0.79-21.51-1.3-25.69c-0.19-1.73-0.32-2.67-0.32-2.67s-100.92-2.06-162.48-42.77
		c-63.12,42.97-162.48,42.77-162.48,42.77s-0.13,0.94-0.32,2.67c-0.51,4.18-1.35,13.14-1.3,25.69
		c-0.29,59.69,15.96,198.93,164.07,273.42h0.01c0,0,0.01-0.01,0.01-0.01c0,0,0.01,0.01,0.01,0.01h0.01
		C647.48,319.4,663.74,180.16,663.45,120.47z"/>
	<path class="st1" d="M446.7,227.4c-8.04-23.63-6.4-48.97,4.63-71.36c7.41-15.05,18.48-27.54,32.1-36.57
		c-40.86-11.76-84.31,10.23-98.66,50.85c-13.05,36.96,2.34,77.06,34.74,96.42l0.99,41.41c0.09,3.85,5.85,5.86,8.31,2.9l27.45-32.98
		c9.26,0.56,18.41-0.51,27.1-3C466.62,263.92,453.5,247.39,446.7,227.4z"/>
	<g>
		<path class="st2" d="M611.8,171.23c-14.4-42.33-60.39-64.97-102.72-50.56c-42.33,14.4-64.97,60.39-50.56,102.72
			c11.9,34.99,45.39,56.5,80.56,54.78l27.07,33.29c2.43,2.98,8.21,1.04,8.34-2.81l1.46-41.4
			C608.57,248.26,624.42,208.34,611.8,171.23z M562.12,241.86h-26.07h-26.07l12.04-38.05c-8.38-4.86-14.04-13.9-14.04-24.29
			c0-15.5,12.57-28.07,28.07-28.07c15.5,0,28.07,12.57,28.07,28.07c0,10.39-5.65,19.43-14.04,24.29L562.12,241.86z"/>
	</g>
</g>
</svg>
