<?xml version="1.0" encoding="utf-8"?>
<!-- Generator: Adobe Illustrator 24.1.2, SVG Export Plug-In . SVG Version: 6.00 Build 0)  -->
<svg version="1.1" id="Layer_1" xmlns="http://www.w3.org/2000/svg" xmlns:xlink="http://www.w3.org/1999/xlink" x="0px" y="0px"
	 viewBox="0 0 1000 800" style="enable-background:new 0 0 1000 800;" xml:space="preserve">
<style type="text/css">
	.st0{fill:#A7A9AC;}
	.st1{fill:#FFFFFF;}
	.st2{fill:#BCBEC0;}
</style>
<g>
	<path class="st0" d="M150.19,463.68h27.66v75.56h48.33v24.24h-75.99V463.68z"/>
	<path class="st0" d="M238.15,463.68h80.26v23.38h-52.89v15.26h47.9v21.81h-47.9v15.82h53.6v23.52h-80.98V463.68z"/>
	<path class="st0" d="M367.88,462.96h26.66l42.48,100.51h-29.65l-7.13-17.96h-38.64l-7.13,17.96h-28.94L367.88,462.96z
		 M392.12,523.98L381,495.75l-11.26,28.23H392.12z"/>
	<path class="st0" d="M446.72,463.68h47.19c15.25,0,25.8,3.99,32.5,10.69c5.85,5.85,8.84,13.4,8.84,23.24v0.29
		c0,15.4-8.13,25.52-20.53,30.79l23.81,34.78h-31.79l-20.1-30.22h-12.26v30.22h-27.66V463.68z M492.77,511.58
		c9.27,0,14.83-4.56,14.83-11.83v-0.29c0-7.98-5.85-11.97-14.97-11.97h-18.25v24.09H492.77z"/>
	<path class="st0" d="M549.22,463.68h25.8l41.06,52.75v-52.75h27.37v99.79h-24.09l-42.77-54.74v54.74h-27.37V463.68z"/>
	<path class="st0" d="M661.13,463.68h80.26v23.38H688.5v15.26h47.9v21.81h-47.9v15.82h53.6v23.52h-80.98V463.68z"/>
	<path class="st0" d="M756.36,463.68h47.19c15.26,0,25.8,3.99,32.5,10.69c5.84,5.85,8.84,13.4,8.84,23.24v0.29
		c0,15.4-8.13,25.52-20.53,30.79l23.81,34.78h-31.79l-20.1-30.22h-12.26v30.22h-27.66V463.68z M802.41,511.58
		c9.27,0,14.83-4.56,14.83-11.83v-0.29c0-7.98-5.85-11.97-14.97-11.97h-18.25v24.09H802.41z"/>
</g>
<g>
	<g>
		<g>
			<g>
				<path class="st1" d="M979.52,731.12V723h8.42v8.12H979.52z"/>
			</g>
			<g>
				<path class="st1" d="M966.7,717.69h-0.12c-12.03,0-22.1-9.28-22.1-22.4s9.95-22.28,21.97-22.28h0.12
					c12.02,0,22.1,9.28,22.1,22.4C988.67,708.53,978.72,717.69,966.7,717.69z M966.7,680.88h-0.12c-8.3,0-15.2,6.04-15.2,14.53
					c0,8.49,6.78,14.41,15.08,14.41h0.12c8.3,0,15.14-6.04,15.14-14.53C981.71,686.8,975,680.88,966.7,680.88z"/>
			</g>
			<g>
				<path class="st1" d="M945.21,663.91v-19.04c0-5.37,1.59-9.58,4.27-12.33c2.32-2.26,5.49-3.54,9.22-3.54h0.12
					c7.02,0,11.23,4.21,12.94,10.13l16.18-11.54v8.91L973.05,647v9.4h14.89v7.51H945.21z M966.39,645.41c0-5.37-2.81-8.79-7.14-8.79
					h-0.12c-4.58,0-7.08,3.3-7.08,8.85v10.93h14.34V645.41z"/>
			</g>
			<g>
				<path class="st1" d="M966.7,621.67h-0.12c-11.96,0-22.1-9.16-22.1-22.04c0-7.45,2.08-12.03,5.8-16.42l5.68,4.76
					c-2.81,3.3-4.58,6.53-4.58,11.96c0,7.87,6.9,13.86,15.08,13.86h0.12c8.79,0,15.26-5.8,15.26-14.53c0-4.03-1.28-7.69-3.23-10.32
					h-8v10.93h-6.53v-18.19h17.95c3.6,4.21,6.65,10.25,6.65,17.82C988.67,612.88,979.15,621.67,966.7,621.67z"/>
			</g>
		</g>
	</g>
	<g>
		<path class="st1" d="M9.69,581.3h62c36.25,0,59.73,18.74,59.73,50.46v0.41c0,34.19-26.16,52.11-61.79,52.11H49.65v41.2H9.69V581.3
			z M68.8,652.98c14.01,0,22.86-7.62,22.86-18.95v-0.41c0-12.36-8.86-18.74-23.07-18.74H49.65v38.1H68.8z"/>
	</g>
	<g>
		<path class="st1" d="M148.31,581.3h68.18c22.04,0,37.28,5.77,46.96,15.45c8.44,8.44,12.77,19.36,12.77,33.57v0.41
			c0,22.25-11.74,36.87-29.66,44.49l34.4,50.26h-45.93l-29.04-43.67h-17.71v43.67h-39.96V581.3z M214.84,650.51
			c13.39,0,21.42-6.59,21.42-17.09V633c0-11.53-8.45-17.3-21.63-17.3h-26.36v34.81H214.84z"/>
	</g>
	<g>
		<path class="st1" d="M297.43,581.3h39.96v144.18h-39.96V581.3z"/>
	</g>
	<g>
		<path class="st1" d="M352.43,581.3h44.49l32.75,91.25l32.96-91.25h43.67l-58.5,145.21h-37.07L352.43,581.3z"/>
	</g>
	<g>
		<path class="st1" d="M549.54,580.27h38.52l61.38,145.21H606.6l-10.3-25.95h-55.82l-10.3,25.95h-41.81L549.54,580.27z
			 M584.56,668.43l-16.07-40.78l-16.27,40.78H584.56z"/>
	</g>
	<g>
		<path class="st1" d="M649.44,653.81v-0.41c0-42.02,32.13-74.97,75.8-74.97c29.45,0,48.4,12.36,61.17,29.87l-30.07,23.27
			c-8.24-10.09-17.71-16.89-31.51-16.89c-20.19,0-34.4,17.3-34.4,38.31v0.41c0,21.63,14.21,38.52,34.4,38.52
			c15.04,0,23.89-7,32.54-17.51l30.07,21.42c-13.59,18.74-31.93,32.54-63.65,32.54C682.6,728.37,649.44,696.85,649.44,653.81z"/>
	</g>
	<g>
		<path class="st1" d="M842.43,671.52l-54.99-90.22h45.52l29.66,52.52l29.87-52.52h44.7l-54.79,89.6v54.58h-39.96V671.52z"/>
	</g>
</g>
<g>
	<path class="st1" d="M665.15,130.98c0.06-12.72-0.8-21.79-1.31-26.02c-0.19-1.75-0.32-2.71-0.32-2.71s-102.22-2.09-164.57-43.32
		c-63.93,43.52-164.57,43.32-164.57,43.32s-0.13,0.95-0.32,2.71c-0.51,4.23-1.37,13.31-1.31,26.02
		c-0.3,60.45,16.17,201.48,166.18,276.93h0.01c0,0,0.01-0.01,0.01-0.01c0,0,0.01,0.01,0.01,0.01h0.01
		C648.99,332.46,665.45,191.43,665.15,130.98z"/>
</g>
<path class="st2" d="M445.62,239.28c-8.14-23.93-6.48-49.6,4.69-72.28c7.51-15.25,18.71-27.9,32.51-37.04
	c-41.39-11.91-85.4,10.36-99.92,51.5c-13.22,37.44,2.37,78.05,35.19,97.66l1,41.94c0.09,3.9,5.92,5.93,8.42,2.94l27.8-33.4
	c9.37,0.57,18.65-0.52,27.45-3.04C465.8,276.27,452.51,259.53,445.62,239.28z"/>
<path d="M612.84,182.38c-14.59-42.87-61.16-65.8-104.03-51.21c-42.87,14.59-65.8,61.16-51.21,104.03
	c12.06,35.44,45.98,57.22,81.59,55.48l27.42,33.72c2.46,3.02,8.31,1.05,8.45-2.85l1.48-41.93
	C609.58,260.4,625.63,219.97,612.84,182.38z"/>
<g>
	<path class="st1" d="M562.53,253.92h-26.41h-26.4l12.19-38.54c-8.49-4.92-14.22-14.08-14.22-24.6c0-15.7,12.73-28.43,28.43-28.43
		c15.7,0,28.43,12.73,28.43,28.43c0,10.52-5.73,19.68-14.22,24.6L562.53,253.92z"/>
</g>
</svg>
