<?xml version="1.0" encoding="utf-8"?>
<!-- Generator: Adobe Illustrator 24.1.2, SVG Export Plug-In . SVG Version: 6.00 Build 0)  -->
<svg version="1.1" id="Layer_1" xmlns="http://www.w3.org/2000/svg" xmlns:xlink="http://www.w3.org/1999/xlink" x="0px" y="0px"
	 viewBox="0 0 1000 800" style="enable-background:new 0 0 1000 800;" xml:space="preserve">
<style type="text/css">
	.st0{fill:#A7A9AC;}
	.st1{fill:#FFFFFF;}
	.st2{fill:#BCBEC0;}
</style>
<g>
	<path class="st0" d="M279.76,296.14h19.88v54.3h34.73v17.42h-54.61V296.14z"/>
	<path class="st0" d="M342.97,296.14h57.68v16.8h-38.01v10.96h34.42v15.67h-34.42v11.37h38.52v16.9h-58.19V296.14z"/>
	<path class="st0" d="M436.2,295.62h19.16l30.53,72.23h-21.31l-5.12-12.91h-27.76l-5.12,12.91h-20.8L436.2,295.62z M453.62,339.47
		l-7.99-20.28l-8.09,20.28H453.62z"/>
	<path class="st0" d="M492.85,296.14h33.91c10.96,0,18.54,2.87,23.36,7.68c4.2,4.2,6.35,9.63,6.35,16.7v0.2
		c0,11.06-5.84,18.34-14.75,22.13l17.11,25h-22.85l-14.45-21.72h-8.81v21.72h-19.88V296.14z M525.94,330.56
		c6.66,0,10.65-3.28,10.65-8.5v-0.21c0-5.74-4.2-8.61-10.76-8.61h-13.11v17.31H525.94z"/>
	<path class="st0" d="M566.51,296.14h18.54l29.51,37.91v-37.91h19.67v71.72h-17.31l-30.74-39.34v39.34h-19.67V296.14z"/>
	<path class="st0" d="M646.93,296.14h57.68v16.8H666.6v10.96h34.42v15.67H666.6v11.37h38.52v16.9h-58.19V296.14z"/>
	<path class="st0" d="M715.37,296.14h33.91c10.96,0,18.54,2.87,23.36,7.68c4.2,4.2,6.35,9.63,6.35,16.7v0.2
		c0,11.06-5.84,18.34-14.75,22.13l17.11,25H758.5l-14.45-21.72h-8.81v21.72h-19.88V296.14z M748.46,330.56
		c6.66,0,10.65-3.28,10.65-8.5v-0.21c0-5.74-4.2-8.61-10.76-8.61h-13.11v17.31H748.46z"/>
</g>
<g>
	<g>
		<path class="st1" d="M980.52,488.61v-5.83h6.05v5.83H980.52z"/>
	</g>
	<g>
		<path class="st1" d="M971.31,478.96h-0.09c-8.64,0-15.88-6.67-15.88-16.1c0-9.43,7.15-16.01,15.79-16.01h0.09
			c8.64,0,15.88,6.67,15.88,16.1C987.1,472.38,979.95,478.96,971.31,478.96z M971.31,452.51h-0.09c-5.97,0-10.92,4.34-10.92,10.44
			c0,6.1,4.87,10.35,10.83,10.35h0.09c5.97,0,10.88-4.34,10.88-10.44C982.1,456.76,977.27,452.51,971.31,452.51z"/>
	</g>
	<g>
		<path class="st1" d="M955.87,440.31v-13.69c0-3.86,1.14-6.89,3.07-8.86c1.67-1.62,3.95-2.54,6.62-2.54h0.09
			c5.04,0,8.07,3.03,9.3,7.28l11.62-8.29v6.4l-10.7,7.55v6.76h10.7v5.39H955.87z M971.09,427.02c0-3.86-2.02-6.32-5.13-6.32h-0.09
			c-3.29,0-5.09,2.37-5.09,6.36v7.85h10.31V427.02z"/>
	</g>
	<g>
		<path class="st1" d="M971.31,409.96h-0.09c-8.6,0-15.88-6.58-15.88-15.84c0-5.35,1.49-8.64,4.17-11.8l4.08,3.42
			c-2.02,2.37-3.29,4.69-3.29,8.6c0,5.66,4.96,9.96,10.83,9.96h0.09c6.32,0,10.97-4.17,10.97-10.44c0-2.9-0.92-5.53-2.32-7.41h-5.75
			v7.85h-4.69v-13.07h12.9c2.59,3.03,4.78,7.37,4.78,12.81C987.1,403.64,980.26,409.96,971.31,409.96z"/>
	</g>
</g>
<g>
	<g>
		<path class="st1" d="M280.16,380.19h44.55c26.05,0,42.92,13.47,42.92,36.26v0.3c0,24.57-18.8,37.45-44.4,37.45h-14.36v29.6h-28.72
			V380.19z M322.64,431.7c10.07,0,16.43-5.48,16.43-13.62v-0.3c0-8.88-6.36-13.47-16.58-13.47h-13.62v27.38H322.64z"/>
	</g>
	<g>
		<path class="st1" d="M379.77,380.19h48.99c15.84,0,26.79,4.14,33.75,11.1c6.07,6.07,9.18,13.91,9.18,24.13v0.3
			c0,15.99-8.44,26.5-21.31,31.97l24.72,36.12h-33.01l-20.87-31.38h-12.73v31.38h-28.72V380.19z M427.58,429.92
			c9.62,0,15.39-4.74,15.39-12.28v-0.3c0-8.29-6.07-12.43-15.54-12.43h-18.95v25.01H427.58z"/>
	</g>
	<g>
		<path class="st1" d="M486.94,380.19h28.72V483.8h-28.72V380.19z"/>
	</g>
	<g>
		<path class="st1" d="M526.46,380.19h31.97l23.53,65.57l23.68-65.57h31.38l-42.04,104.35h-26.64L526.46,380.19z"/>
	</g>
	<g>
		<path class="st1" d="M668.11,379.45h27.68L739.9,483.8h-30.79l-7.4-18.65H661.6l-7.4,18.65h-30.05L668.11,379.45z M693.27,442.8
			l-11.54-29.31l-11.69,29.31H693.27z"/>
	</g>
	<g>
		<path class="st1" d="M739.9,432.29V432c0-30.2,23.09-53.88,54.47-53.88c21.17,0,34.78,8.88,43.96,21.46l-21.61,16.72
			c-5.92-7.25-12.73-12.14-22.65-12.14c-14.51,0-24.72,12.43-24.72,27.53v0.3c0,15.54,10.21,27.68,24.72,27.68
			c10.8,0,17.17-5.03,23.39-12.58l21.61,15.39c-9.77,13.47-22.94,23.39-45.74,23.39C763.73,485.87,739.9,463.23,739.9,432.29z"/>
	</g>
	<g>
		<path class="st1" d="M878.59,445.02l-39.52-64.83h32.71l21.31,37.74l21.46-37.74h32.12l-39.37,64.39v39.22h-28.72V445.02z"/>
	</g>
</g>
<g>
	<g>
		<path class="st1" d="M248.39,312.81c0.04-9.09-0.57-15.57-0.94-18.59c-0.14-1.25-0.23-1.93-0.23-1.93s-73.03-1.49-117.58-30.95
			c-45.68,31.1-117.58,30.95-117.58,30.95s-0.1,0.68-0.23,1.93c-0.37,3.02-0.98,9.51-0.94,18.59
			C10.67,356,22.44,456.76,129.62,510.68h0.01c0,0,0.01,0,0.01-0.01c0,0,0.01,0,0.01,0.01h0.01
			C236.84,456.76,248.6,356,248.39,312.81z"/>
	</g>
	<path class="st2" d="M91.54,390.18c-5.82-17.1-4.63-35.44,3.35-51.64c5.36-10.89,13.37-19.93,23.23-26.46
		c-29.57-8.51-61.02,7.4-71.39,36.8c-9.44,26.75,1.69,55.77,25.14,69.78l0.72,29.97c0.07,2.78,4.23,4.24,6.01,2.1l19.87-23.87
		c6.7,0.4,13.32-0.37,19.61-2.17C105.95,416.61,96.46,404.65,91.54,390.18z"/>
	<path d="M211.02,349.53c-10.42-30.63-43.7-47.01-74.33-36.59c-30.63,10.42-47.01,43.7-36.59,74.33
		c8.61,25.32,32.85,40.89,58.3,39.64l19.59,24.09c1.76,2.16,5.94,0.75,6.04-2.03l1.06-29.96
		C208.68,405.28,220.15,376.39,211.02,349.53z"/>
	<g>
		<path class="st1" d="M175.07,400.65H156.2h-18.87l8.71-27.53c-6.07-3.51-10.16-10.06-10.16-17.58c0-11.22,9.1-20.31,20.31-20.31
			c11.22,0,20.32,9.1,20.32,20.31c0,7.52-4.09,14.06-10.16,17.58L175.07,400.65z"/>
	</g>
</g>
</svg>
