<?xml version="1.0" encoding="utf-8"?>
<!-- Generator: Adobe Illustrator 24.1.2, SVG Export Plug-In . SVG Version: 6.00 Build 0)  -->
<svg version="1.1" id="Layer_1" xmlns="http://www.w3.org/2000/svg" xmlns:xlink="http://www.w3.org/1999/xlink" x="0px" y="0px"
	 viewBox="0 0 1000 800" style="enable-background:new 0 0 1000 800;" xml:space="preserve">
<style type="text/css">
	.st0{display:none;}
	.st1{display:inline;}
	.st2{fill:none;stroke:#8DC63F;stroke-width:3.2786;stroke-linecap:round;stroke-miterlimit:10;}
	.st3{fill:none;stroke:#8DC63F;stroke-width:3.2786;stroke-linecap:round;stroke-miterlimit:10;stroke-dasharray:0.8331,8.3307;}
	.st4{fill:none;stroke:#8DC63F;stroke-width:3.2786;stroke-linecap:round;stroke-miterlimit:10;stroke-dasharray:0.8068,8.0676;}
	.st5{fill:none;}
	.st6{fill:#939598;}
	.st7{fill:#BCBEC0;}
	.st8{fill:#FFFFFF;}
</style>
<g class="st0">
	<g class="st1">
		<path class="st2" d="M347.11,516.75c-0.08-0.11-0.16-0.22-0.24-0.33"/>
		<path class="st3" d="M342.23,509.5c-19.7-30.7-31.12-67.22-31.12-106.41c0-29.44,6.45-57.37,18-82.47"/>
		<path class="st2" d="M330.9,316.86c0.06-0.12,0.12-0.25,0.18-0.37"/>
	</g>
</g>
<g class="st0">
	<g class="st1">
		<path class="st2" d="M684.84,314.48c0.06,0.12,0.12,0.24,0.18,0.37"/>
		<path class="st4" d="M688.48,322.13c11.13,24.7,17.32,52.11,17.32,80.96c0,40.73-12.34,78.57-33.48,110"/>
		<path class="st2" d="M670.04,516.41c-0.08,0.11-0.16,0.22-0.24,0.33"/>
	</g>
</g>
<path id="SVGID_x5F_1_x5F_" class="st5" d="M695.14,403.5c0,102.98-83.48,186.47-186.47,186.47S322.21,506.48,322.21,403.5
	s83.48-186.47,186.47-186.47S695.14,300.52,695.14,403.5z"/>
<text class="st0"><textPath  xlink:href="#SVGID_x5F_1_x5F_" startOffset="33.5023%"  class="st1">
<tspan  style="fill:#1C75BC; font-family:'CenturyGothicPro-Bold'; font-size:24.5852px; letter-spacing:55;">We&apos;ll clean circles around you,</tspan></textPath>
</text>
<path id="SVGID_x5F_2_x5F_" class="st5" d="M713.18,403.5c0-112.94-91.56-204.5-204.5-204.5s-204.5,91.56-204.5,204.5
	S395.73,608,508.68,608S713.18,516.44,713.18,403.5z"/>
<text class="st0"><textPath  xlink:href="#SVGID_x5F_2_x5F_" startOffset="33.5023%"  class="st1">
<tspan  style="fill:#1C75BC; font-family:'CenturyGothicPro-Bold'; font-size:26.2516px; letter-spacing:55;">and get the corners too!</tspan></textPath>
</text>
<g>
	<g>
		<path d="M279.25,297.48c0,0-48.02-10.65-104.02-10.65s-107.2,10.65-107.2,10.65s-19.36,114.71,105.6,191.98h0.01
			C298.61,412.19,279.25,297.48,279.25,297.48z"/>
	</g>
</g>
<g>
	<path class="st6" d="M308.8,296.73h17.88v48.84h31.24v15.67H308.8V296.73z"/>
	<path class="st6" d="M365.66,296.73h51.88v15.11h-34.19v9.86h30.96v14.1h-30.96v10.23H418v15.2h-52.34V296.73z"/>
	<path class="st6" d="M449.51,296.27h17.23l27.46,64.96h-19.17l-4.61-11.61h-24.97l-4.61,11.61h-18.71L449.51,296.27z
		 M465.17,335.71l-7.19-18.25l-7.28,18.25H465.17z"/>
	<path class="st6" d="M500.46,296.73h30.5c9.86,0,16.68,2.58,21.01,6.91c3.78,3.78,5.71,8.66,5.71,15.02v0.18
		c0,9.95-5.25,16.49-13.27,19.9l15.39,22.48h-20.55l-12.99-19.54h-7.92v19.54h-17.88V296.73z M530.23,327.69
		c5.99,0,9.58-2.95,9.58-7.65v-0.18c0-5.16-3.78-7.74-9.68-7.74h-11.79v15.57H530.23z"/>
	<path class="st6" d="M566.71,296.73h16.68l26.54,34.09v-34.09h17.69v64.5h-15.57l-27.64-35.38v35.38h-17.69V296.73z"/>
	<path class="st6" d="M639.05,296.73h51.88v15.11h-34.19v9.86h30.96v14.1h-30.96v10.23h34.65v15.2h-52.34V296.73z"/>
	<path class="st6" d="M700.6,296.73h30.5c9.86,0,16.68,2.58,21.01,6.91c3.78,3.78,5.71,8.66,5.71,15.02v0.18
		c0,9.95-5.25,16.49-13.27,19.9l15.39,22.48h-20.55L726.4,341.7h-7.92v19.54H700.6V296.73z M730.36,327.69
		c5.99,0,9.58-2.95,9.58-7.65v-0.18c0-5.16-3.78-7.74-9.68-7.74h-11.79v15.57H730.36z"/>
</g>
<g>
	<g>
		<path d="M936,469.17v-5.25h5.45v5.25H936z"/>
		<path d="M927.72,460.49h-0.08c-7.77,0-14.29-6-14.29-14.48s6.43-14.4,14.21-14.4h0.08c7.77,0,14.29,6,14.29,14.48
			S935.49,460.49,927.72,460.49z M927.72,436.69h-0.08c-5.37,0-9.83,3.91-9.83,9.39s4.38,9.31,9.75,9.31h0.08
			c5.37,0,9.79-3.91,9.79-9.39S933.08,436.69,927.72,436.69z"/>
		<path d="M913.83,425.73v-12.31c0-3.47,1.03-6.19,2.76-7.97c1.5-1.46,3.55-2.29,5.96-2.29h0.08c4.54,0,7.26,2.72,8.37,6.55
			l10.46-7.46v5.76l-9.63,6.79v6.08h9.63v4.85H913.83z M927.52,413.77c0-3.47-1.81-5.68-4.62-5.68h-0.08
			c-2.96,0-4.58,2.13-4.58,5.72v7.06h9.27V413.77z"/>
		<path d="M927.72,398.42h-0.08c-7.73,0-14.29-5.92-14.29-14.25c0-4.81,1.34-7.77,3.75-10.61l3.67,3.08
			c-1.81,2.13-2.96,4.22-2.96,7.73c0,5.09,4.46,8.96,9.75,8.96h0.08c5.68,0,9.87-3.75,9.87-9.39c0-2.6-0.83-4.97-2.09-6.67h-5.17
			v7.06h-4.22v-11.76h11.6c2.33,2.72,4.3,6.63,4.3,11.52C941.92,392.74,935.77,398.42,927.72,398.42z"/>
	</g>
</g>
<g>
	<path d="M309.16,372.33h40.07c23.43,0,38.61,12.11,38.61,32.62v0.27c0,22.1-16.91,33.68-39.94,33.68h-12.91v26.63h-25.83V372.33z
		 M347.37,418.66c9.05,0,14.78-4.93,14.78-12.25v-0.27c0-7.99-5.72-12.11-14.91-12.11h-12.25v24.63H347.37z"/>
	<path d="M398.76,372.33h44.07c14.24,0,24.1,3.73,30.35,9.98c5.46,5.46,8.25,12.52,8.25,21.7v0.27c0,14.38-7.59,23.83-19.17,28.76
		l22.23,32.48H454.8l-18.77-28.22h-11.45v28.22h-25.83V372.33z M441.76,417.07c8.65,0,13.85-4.26,13.85-11.05v-0.27
		c0-7.45-5.46-11.18-13.98-11.18h-17.04v22.5H441.76z"/>
	<path d="M495.14,372.33h25.83v93.19h-25.83V372.33z"/>
	<path d="M530.69,372.33h28.76l21.17,58.98l21.3-58.98h28.22l-37.81,93.86h-23.96L530.69,372.33z"/>
	<path d="M658.09,371.67h24.9l39.67,93.86h-27.69l-6.66-16.77h-36.08l-6.66,16.77h-27.03L658.09,371.67z M680.72,428.65
		l-10.38-26.36l-10.52,26.36H680.72z"/>
	<path d="M722.66,419.2v-0.27c0-27.16,20.77-48.46,48.99-48.46c19.04,0,31.29,7.99,39.54,19.3l-19.44,15.04
		c-5.32-6.52-11.45-10.92-20.37-10.92c-13.05,0-22.23,11.18-22.23,24.76v0.27c0,13.98,9.19,24.9,22.23,24.9
		c9.72,0,15.44-4.53,21.03-11.32l19.44,13.84c-8.79,12.11-20.64,21.03-41.14,21.03C744.1,467.39,722.66,447.02,722.66,419.2z"/>
	<path d="M847.4,430.65l-35.55-58.31h29.42l19.17,33.95l19.3-33.95h28.89l-35.41,57.91v35.28H847.4V430.65z"/>
</g>
<path class="st7" d="M139.28,377.51c-5.23-15.37-4.16-31.85,3.01-46.41c4.82-9.79,12.02-17.91,20.88-23.78
	c-26.57-7.65-54.83,6.65-64.16,33.07c-8.49,24.04,1.52,50.12,22.6,62.71l0.64,26.93c0.06,2.5,3.8,3.81,5.4,1.89l17.85-21.45
	c6.02,0.36,11.97-0.33,17.63-1.95C152.23,401.26,143.7,390.51,139.28,377.51z"/>
<g>
	<path class="st8" d="M246.65,340.97c-9.37-27.53-39.27-42.25-66.8-32.89c-27.53,9.37-42.25,39.27-32.89,66.8
		c7.74,22.76,29.52,36.74,52.39,35.63l17.61,21.65c1.58,1.94,5.34,0.67,5.43-1.83l0.95-26.92
		C244.55,391.07,254.86,365.11,246.65,340.97z M214.34,386.91h-16.96h-16.95l7.83-24.75c-5.45-3.16-9.13-9.04-9.13-15.8
		c0-10.08,8.17-18.26,18.26-18.26c10.08,0,18.26,8.17,18.26,18.26c0,6.75-3.68,12.64-9.13,15.79L214.34,386.91z"/>
</g>
</svg>
